<mxfile host="app.diagrams.net" modified="2024-05-21T01:56:02.319Z" agent="Mozilla/5.0 (Windows NT 10.0; Win64; x64) AppleWebKit/537.36 (KHTML, like Gecko) Chrome/124.0.0.0 Safari/537.36" etag="xJQH6f6SHy0LeE20Jn4o" version="24.4.4" type="github">
  <diagram name="第 1 页" id="Xk4DTeO2L7ebXj1VIphF">
    <mxGraphModel dx="925" dy="503" grid="1" gridSize="10" guides="1" tooltips="1" connect="1" arrows="1" fold="1" page="1" pageScale="1" pageWidth="827" pageHeight="1169" math="0" shadow="0">
      <root>
        <mxCell id="0" />
        <mxCell id="1" parent="0" />
        <mxCell id="1DKFtj1IndCgD2F-R4Oi-11" value="" style="rounded=0;whiteSpace=wrap;html=1;fillColor=#dae8fc;strokeColor=none;" vertex="1" parent="1">
          <mxGeometry x="331" y="670" width="499" height="50" as="geometry" />
        </mxCell>
        <mxCell id="1DKFtj1IndCgD2F-R4Oi-1" value="" style="rounded=0;whiteSpace=wrap;html=1;fillColor=#FAE7E3;dashed=1;strokeColor=none;" vertex="1" parent="1">
          <mxGeometry x="330" y="730" width="500" height="50" as="geometry" />
        </mxCell>
        <mxCell id="2grN98Y4-Hv0bliAiQ4v-1" value="" style="rounded=0;whiteSpace=wrap;html=1;fillColor=none;strokeColor=#7EA6E0;strokeWidth=1;dashed=1;" parent="1" vertex="1">
          <mxGeometry x="990" y="220" width="600" height="490" as="geometry" />
        </mxCell>
        <mxCell id="Bs9pkw0BLUhhkMPPzYj--3" value="" style="rounded=0;whiteSpace=wrap;html=1;fillColor=#fff2cc;dashed=1;strokeColor=none;" parent="1" vertex="1">
          <mxGeometry x="330" y="790" width="500" height="80" as="geometry" />
        </mxCell>
        <mxCell id="2grN98Y4-Hv0bliAiQ4v-3" value="" style="rounded=0;whiteSpace=wrap;html=1;fillColor=#d5e8d4;dashed=1;strokeColor=none;" parent="1" vertex="1">
          <mxGeometry x="330" y="440" width="500" height="220" as="geometry" />
        </mxCell>
        <mxCell id="2grN98Y4-Hv0bliAiQ4v-35" value="&lt;b style=&quot;&quot;&gt;&lt;font style=&quot;font-size: 12px;&quot;&gt;低代码开发平台&lt;/font&gt;&lt;/b&gt;" style="rounded=0;whiteSpace=wrap;html=1;fillColor=#0050ef;fontColor=#ffffff;strokeColor=none;" parent="1" vertex="1">
          <mxGeometry x="330" y="400" width="500" height="30" as="geometry" />
        </mxCell>
        <mxCell id="2grN98Y4-Hv0bliAiQ4v-36" value="&lt;font color=&quot;#ffffff&quot; style=&quot;font-size: 10px;&quot;&gt;低代码开发平台框架&lt;/font&gt;" style="rounded=0;whiteSpace=wrap;html=1;fillColor=#f0a30a;strokeColor=none;align=center;fontColor=#000000;" parent="1" vertex="1">
          <mxGeometry x="350" y="800" width="460" height="24" as="geometry" />
        </mxCell>
        <mxCell id="2grN98Y4-Hv0bliAiQ4v-37" value="&lt;font color=&quot;#ffffff&quot; style=&quot;font-size: 10px;&quot;&gt;磐石数字化底座&lt;/font&gt;" style="rounded=0;whiteSpace=wrap;html=1;fillColor=#f0a30a;strokeColor=none;align=center;fontColor=#000000;" parent="1" vertex="1">
          <mxGeometry x="350" y="840" width="460" height="20" as="geometry" />
        </mxCell>
        <mxCell id="2grN98Y4-Hv0bliAiQ4v-41" value="&lt;span style=&quot;font-size: 10px;&quot;&gt;项目（管理信息系统、研发项目、生产项目）&lt;/span&gt;" style="rounded=0;whiteSpace=wrap;html=1;fillColor=#60a917;fontColor=#ffffff;strokeColor=none;align=center;" parent="1" vertex="1">
          <mxGeometry x="350" y="450.5" width="460" height="29" as="geometry" />
        </mxCell>
        <mxCell id="2grN98Y4-Hv0bliAiQ4v-42" value="&lt;span style=&quot;font-size: 10px;&quot;&gt;业务模块&lt;/span&gt;&lt;span style=&quot;font-size: 10px;&quot;&gt;（源码）&lt;/span&gt;" style="rounded=0;whiteSpace=wrap;html=1;align=center;fillColor=#f5f5f5;fontColor=#333333;strokeColor=none;" parent="1" vertex="1">
          <mxGeometry x="356" y="517.5" width="96" height="22.5" as="geometry" />
        </mxCell>
        <mxCell id="2grN98Y4-Hv0bliAiQ4v-43" value="&lt;span style=&quot;font-size: 10px;&quot;&gt;低码功能&lt;/span&gt;" style="rounded=0;whiteSpace=wrap;html=1;fillColor=#f5f5f5;fontColor=#333333;strokeColor=none;align=center;" parent="1" vertex="1">
          <mxGeometry x="414" y="609" width="55" height="22.5" as="geometry" />
        </mxCell>
        <mxCell id="2grN98Y4-Hv0bliAiQ4v-44" value="&lt;font style=&quot;font-size: 10px;&quot;&gt;表单设计&lt;/font&gt;" style="rounded=0;whiteSpace=wrap;html=1;fillColor=#1ba1e2;fontColor=#ffffff;strokeColor=none;align=center;" parent="1" vertex="1">
          <mxGeometry x="350" y="683" width="60" height="24" as="geometry" />
        </mxCell>
        <mxCell id="2grN98Y4-Hv0bliAiQ4v-45" style="edgeStyle=orthogonalEdgeStyle;rounded=0;orthogonalLoop=1;jettySize=auto;html=1;exitX=0.5;exitY=1;exitDx=0;exitDy=0;" parent="1" source="2grN98Y4-Hv0bliAiQ4v-44" target="2grN98Y4-Hv0bliAiQ4v-44" edge="1">
          <mxGeometry relative="1" as="geometry" />
        </mxCell>
        <mxCell id="2grN98Y4-Hv0bliAiQ4v-48" value="&lt;font style=&quot;font-size: 10px;&quot;&gt;源码功能&lt;/font&gt;" style="rounded=0;whiteSpace=wrap;html=1;fillColor=#f5f5f5;strokeColor=none;align=center;fontColor=#333333;" parent="1" vertex="1">
          <mxGeometry x="346" y="609" width="55" height="22.5" as="geometry" />
        </mxCell>
        <mxCell id="2grN98Y4-Hv0bliAiQ4v-49" value="&lt;font style=&quot;font-size: 10px;&quot;&gt;流程表单页面&lt;/font&gt;" style="rounded=0;whiteSpace=wrap;html=1;fillColor=#60a917;fontColor=#ffffff;strokeColor=none;align=center;" parent="1" vertex="1">
          <mxGeometry x="484" y="589.5" width="55" height="42" as="geometry" />
        </mxCell>
        <mxCell id="2grN98Y4-Hv0bliAiQ4v-50" value="&lt;font style=&quot;font-size: 10px;&quot;&gt;基础表单页面&lt;/font&gt;" style="rounded=0;whiteSpace=wrap;html=1;fillColor=#60a917;strokeColor=none;align=center;fontColor=#ffffff;" parent="1" vertex="1">
          <mxGeometry x="546.5" y="589.5" width="55" height="42" as="geometry" />
        </mxCell>
        <mxCell id="2grN98Y4-Hv0bliAiQ4v-51" value="&lt;font style=&quot;font-size: 10px;&quot;&gt;公开表单页面&lt;/font&gt;" style="rounded=0;whiteSpace=wrap;html=1;fillColor=#60a917;strokeColor=none;align=center;fontColor=#ffffff;" parent="1" vertex="1">
          <mxGeometry x="614" y="589.5" width="55" height="42" as="geometry" />
        </mxCell>
        <mxCell id="2grN98Y4-Hv0bliAiQ4v-52" value="&lt;span style=&quot;font-size: 10px;&quot;&gt;流程表单页面&lt;/span&gt;" style="rounded=0;whiteSpace=wrap;html=1;fillColor=#60a917;fontColor=#ffffff;strokeColor=none;align=center;" parent="1" vertex="1">
          <mxGeometry x="684" y="589.5" width="55" height="42" as="geometry" />
        </mxCell>
        <mxCell id="2grN98Y4-Hv0bliAiQ4v-53" value="&lt;font style=&quot;font-size: 10px;&quot;&gt;自定义页面&lt;/font&gt;" style="rounded=0;whiteSpace=wrap;html=1;fillColor=#60a917;fontColor=#ffffff;strokeColor=none;align=center;" parent="1" vertex="1">
          <mxGeometry x="755" y="589.5" width="55" height="42" as="geometry" />
        </mxCell>
        <mxCell id="2grN98Y4-Hv0bliAiQ4v-66" value="&lt;font style=&quot;font-size: 10px;&quot;&gt;流程设计&lt;/font&gt;" style="rounded=0;whiteSpace=wrap;html=1;fillColor=#1ba1e2;fontColor=#ffffff;strokeColor=none;align=center;" parent="1" vertex="1">
          <mxGeometry x="444" y="683" width="62" height="24" as="geometry" />
        </mxCell>
        <mxCell id="2grN98Y4-Hv0bliAiQ4v-67" value="&lt;font style=&quot;font-size: 10px;&quot;&gt;数据建模&lt;/font&gt;" style="rounded=0;whiteSpace=wrap;html=1;fillColor=#1ba1e2;fontColor=#ffffff;strokeColor=none;align=center;" parent="1" vertex="1">
          <mxGeometry x="549.5" y="683" width="61" height="24" as="geometry" />
        </mxCell>
        <mxCell id="2grN98Y4-Hv0bliAiQ4v-68" value="&lt;font style=&quot;font-size: 10px;&quot;&gt;页面设计&lt;/font&gt;" style="rounded=0;whiteSpace=wrap;html=1;fillColor=#1ba1e2;fontColor=#ffffff;strokeColor=none;align=center;" parent="1" vertex="1">
          <mxGeometry x="749.88" y="683" width="60.12" height="24" as="geometry" />
        </mxCell>
        <mxCell id="2grN98Y4-Hv0bliAiQ4v-69" value="&lt;font style=&quot;font-size: 10px;&quot;&gt;表格设计&lt;/font&gt;" style="rounded=0;whiteSpace=wrap;html=1;fillColor=#1ba1e2;fontColor=#ffffff;strokeColor=none;align=center;" parent="1" vertex="1">
          <mxGeometry x="650" y="683" width="62" height="24" as="geometry" />
        </mxCell>
        <mxCell id="Bs9pkw0BLUhhkMPPzYj--1" value="&lt;span style=&quot;font-size: 10px;&quot;&gt;&lt;font color=&quot;#4d4d4d&quot;&gt;生态市场（业务模板、基础模板、组件）&lt;/font&gt;&lt;/span&gt;" style="rounded=0;whiteSpace=wrap;html=1;fillColor=#f8cecc;strokeColor=none;align=center;" parent="1" vertex="1">
          <mxGeometry x="350" y="740" width="460" height="30" as="geometry" />
        </mxCell>
        <mxCell id="1DKFtj1IndCgD2F-R4Oi-2" value="&lt;span style=&quot;font-size: 10px;&quot;&gt;页面&lt;/span&gt;" style="rounded=0;whiteSpace=wrap;html=1;fillColor=#f5f5f5;fontColor=#333333;strokeColor=none;align=center;" vertex="1" parent="1">
          <mxGeometry x="376.5" y="567" width="55" height="22.5" as="geometry" />
        </mxCell>
        <mxCell id="1DKFtj1IndCgD2F-R4Oi-14" value="&lt;span style=&quot;font-size: 10px;&quot;&gt;业务模块&lt;/span&gt;&lt;span style=&quot;font-size: 10px;&quot;&gt;（低码）&lt;/span&gt;" style="rounded=0;whiteSpace=wrap;html=1;align=center;fillColor=#60a917;fontColor=#ffffff;strokeColor=none;" vertex="1" parent="1">
          <mxGeometry x="532" y="517.5" width="96" height="22.5" as="geometry" />
        </mxCell>
        <mxCell id="1DKFtj1IndCgD2F-R4Oi-15" value="&lt;span style=&quot;font-size: 10px;&quot;&gt;业务模块&lt;/span&gt;&lt;span style=&quot;font-size: 10px;&quot;&gt;（低码）&lt;/span&gt;" style="rounded=0;whiteSpace=wrap;html=1;align=center;fillColor=#60a917;fontColor=#ffffff;strokeColor=none;" vertex="1" parent="1">
          <mxGeometry x="700" y="517.5" width="96" height="22.5" as="geometry" />
        </mxCell>
      </root>
    </mxGraphModel>
  </diagram>
</mxfile>
